<svg id="Layer_1" data-name="Layer 1" xmlns="http://www.w3.org/2000/svg" viewBox="0 0 357.24 357.24"><defs><style>.cls-1{fill:#e352a2;}.cls-2{fill:#fff;}</style></defs><title>arrow</title><circle class="cls-1" cx="178.62" cy="178.62" r="178.62"/><path class="cls-2" d="M50.58,180.28H307.93c5.79,0,5.8-9,0-9H50.58c-5.79,0-5.8,9,0,9Z" transform="translate(-2.09 -0.64)"/><path class="cls-2" d="M311.18,172.05,223.86,84.49c-4.09-4.1-10.46,2.26-6.36,6.37l87.32,87.56c4.09,4.1,10.46-2.26,6.36-6.37Z" transform="translate(-2.09 -0.64)"/><path class="cls-2" d="M305.33,172.2,215.2,256.86c-4.23,4,2.14,10.33,6.36,6.37l90.13-84.67c4.23-4-2.14-10.33-6.36-6.36Z" transform="translate(-2.09 -0.64)"/></svg>