<svg xmlns="http://www.w3.org/2000/svg" xmlns:xlink="http://www.w3.org/1999/xlink" width="72" height="29" viewBox="0 0 72 29">
    <defs>
        <path id="a" d="M14.682.267C6.649.267.136 6.698.136 14.632s6.513 14.366 14.546 14.366h21.14V.267h-21.14z"/>
        <path id="c" d="M23.827.266c-.157 0-.314 0-.468.015H.409v28.606h23.008c4.648.489 8.856-2.855 9.398-7.526a8.58 8.58 0 0 0 .057-1c0-3.1-2.001-5.918-5.196-6.989 2.662-1.605 3.46-3.597 3.46-5.75 0-4.059-3.27-7.35-7.309-7.356z"/>
    </defs>
    <g fill="none" fill-rule="evenodd">
        <g transform="translate(36)">
            <mask id="b" fill="#fff">
                <use xlink:href="#a"/>
            </mask>
            <path fill="#FFF" d="M-22.088 6.96h46.014V4.674h-46.014zM-22.088 2.554h52.806V.266h-52.806zM-22.088 11.37h49.277V9.082h-49.277zM-22.088 15.776h43.567v-2.288h-43.567zM-22.088 20.185h51.996v-2.287h-51.996zM-22.088 24.592h58.521v-2.288h-58.521zM-22.088 28.998h48.733V26.71h-48.733z" mask="url(#b)"/>
        </g>
        <g>
            <mask id="d" fill="#fff">
                <use xlink:href="#c"/>
            </mask>
            <path fill="#FFF" d="M6.647 24.497h55.367v-2.279H6.647zM.791 28.887h61.223v-2.28H.791zM11.173 20.105h50.841v-2.279H11.173zM1.856 15.716h60.158v-2.28H1.856zM6.647 11.323h55.367V9.044H6.647zM9.767 6.934h52.247V4.655H9.767zM3.408 2.544h58.606V.265H3.408z" mask="url(#d)"/>
        </g>
    </g>
</svg>
