<svg xmlns="http://www.w3.org/2000/svg" xmlns:xlink="http://www.w3.org/1999/xlink" viewBox="0 0 262 107"><defs><style>.cls-1{fill:none;}.cls-2{clip-path:url(#clip-path);}.cls-3{clip-path:url(#clip-path-2);}</style><clipPath id="clip-path" transform="translate(-147)"><path class="cls-1" d="M329,0h0a53.49,53.49,0,0,0,0,107H538V0Z"/></clipPath><clipPath id="clip-path-2" transform="translate(-147)"><path class="cls-1" d="M248,49c10-6,13-13.45,13-21.5A27.5,27.5,0,0,0,233.54,0c-.59,0-1.18,0-1.76.06H0V107H232v-.21a31.83,31.83,0,0,0,35.52-31.66C267.52,63.54,260,53,248,49Z"/></clipPath></defs><title>Burn Cartel Logo</title><g id="Layer_2" data-name="Layer 2"><g id="Layer_1-2" data-name="Layer 1"><g class="cls-2"><rect x="46.76" y="16.41" width="169.24" height="8.52"/><rect x="46.76" width="194.22" height="8.52"/><rect x="46.76" y="32.83" width="181.24" height="8.52"/><rect x="46.76" y="49.24" width="160.24" height="8.52"/><rect x="46.76" y="65.66" width="191.24" height="8.52"/><rect x="46.76" y="82.07" width="215.24" height="8.52"/><rect x="46.76" y="98.48" width="179.24" height="8.52"/></g><g class="cls-3"><rect x="169" y="82.07" width="208" height="8.52" transform="translate(399 172.66) rotate(-180)"/><rect x="147" y="98.48" width="230" height="8.52" transform="translate(377 205.48) rotate(-180)"/><rect x="186" y="65.66" width="191" height="8.52" transform="translate(416 139.83) rotate(-180)"/><rect x="151" y="49.24" width="226" height="8.52" transform="translate(381 107) rotate(180)"/><rect x="169" y="32.83" width="208" height="8.52" transform="translate(399 74.17) rotate(180)"/><rect x="180.72" y="16.41" width="196.28" height="8.52" transform="translate(410.72 41.34) rotate(-180)"/><rect x="156.83" width="220.17" height="8.52" transform="translate(386.83 8.52) rotate(-180)"/></g></g></g></svg>