<svg xmlns="http://www.w3.org/2000/svg" width="19" height="16" viewBox="0 0 19 16">
    <g fill="#626970" fill-rule="evenodd">
        <path d="M18.587 16H.413C.185 16 0 15.777 0 15.5s.185-.5.413-.5h18.174c.228 0 .413.223.413.5s-.185.5-.413.5zM4.6 5H1.4a.4.4 0 0 0-.4.4v7.2a.4.4 0 0 0 .4.4h3.2a.4.4 0 0 0 .4-.4V5.4a.4.4 0 0 0-.4-.4zM10.6 0H7.4c-.221 0-.4.182-.4.406v12.188c0 .224.179.406.4.406h3.2c.221 0 .4-.182.4-.406V.406A.403.403 0 0 0 10.6 0zM16.6 8h-3.2c-.221 0-.4.186-.4.417v4.166c0 .23.179.417.4.417h3.2c.221 0 .4-.186.4-.417V8.417A.408.408 0 0 0 16.6 8z"/>
    </g>
</svg>
