<svg xmlns="http://www.w3.org/2000/svg" width="15" height="16" viewBox="0 0 15 16">
    <g fill="#626970" fill-rule="nonzero">
        <path d="M14.869 2.85l-3.5-2.784a.296.296 0 0 0-.332-.028.353.353 0 0 0-.173.31v2.435h-5.41C2.999 2.783 1 4.967 1 7.653c0 .192.143.347.318.347.176 0 .318-.155.318-.348 0-2.301 1.713-4.174 3.819-4.174h5.409v2.435c0 .13.067.25.173.31a.296.296 0 0 0 .332-.029l3.5-2.782A.36.36 0 0 0 15 3.13a.36.36 0 0 0-.131-.28zM13.682 8c-.176 0-.318.155-.318.348 0 2.301-1.713 4.174-3.819 4.174H4.136v-2.435c0-.13-.067-.25-.173-.31a.295.295 0 0 0-.332.029l-3.5 2.782A.36.36 0 0 0 0 12.87a.36.36 0 0 0 .131.281l3.5 2.783a.299.299 0 0 0 .332.028.353.353 0 0 0 .173-.31v-2.435h5.41c2.456 0 4.454-2.184 4.454-4.87 0-.192-.143-.347-.318-.347z"/>
    </g>
</svg>
