<!-- <svg width="1000" height="1000">
  <rect x="50" y="20" rx="20" ry="20" width="150" height="150"
  style="fill:red;stroke:black;stroke-width:5;opacity:0.5" />
</svg> -->
<!-- <svg xmlns="http://www.w3.org/2000/svg" width="1000" height="1000" viewBox="0 0 1000 1000">
    <path fill="#E54EA3" fill-rule="nonzero" d="M25 0C11.214 0 0 11.214 0 25s11.214 25 25 25 25-11.214 25-25S38.786 0 25 0zm-4.348 33.696c0 .6-.487 1.087-1.087 1.087h-2.174c-.6 0-1.087-.487-1.087-1.087V16.304c0-.6.487-1.087 1.087-1.087h2.174c.6 0 1.087.487 1.087 1.087v17.392zm13.044 0c0 .6-.487 1.087-1.087 1.087h-2.174c-.6 0-1.087-.487-1.087-1.087V16.304c0-.6.487-1.087 1.087-1.087h2.174c.6 0 1.087.487 1.087 1.087v17.392z"/>
</svg> -->

<svg xmlns="http://www.w3.org/2000/svg"  width="1000" height="1000">
    <rect width="100%" height="100%" fill="green" />
</svg>